<mxfile host="app.diagrams.net" modified="2021-05-17T16:21:01.000Z" agent="5.0 (Macintosh)" etag="6VNAQhwsdUjL8KfbWXCV" version="14.6.13" type="github">
  <diagram id="gtWoQz14PzZIkrNFmshv" name="Page-1">
    <mxGraphModel dx="2989" dy="1502" grid="1" gridSize="10" guides="1" tooltips="1" connect="1" arrows="1" fold="1" page="1" pageScale="1" pageWidth="827" pageHeight="1169" math="0" shadow="0">
      <root>
        <mxCell id="0" />
        <mxCell id="1" parent="0" />
        <mxCell id="d_aS0RjPcK2bfP1dVCjd-3" style="edgeStyle=orthogonalEdgeStyle;rounded=0;orthogonalLoop=1;jettySize=auto;html=1;entryX=0;entryY=0.5;entryDx=0;entryDy=0;" parent="1" source="d_aS0RjPcK2bfP1dVCjd-1" target="d_aS0RjPcK2bfP1dVCjd-2" edge="1">
          <mxGeometry relative="1" as="geometry" />
        </mxCell>
        <mxCell id="d_aS0RjPcK2bfP1dVCjd-1" value="MyApp" style="rounded=1;whiteSpace=wrap;html=1;" parent="1" vertex="1">
          <mxGeometry x="-660" y="50" width="120" height="60" as="geometry" />
        </mxCell>
        <mxCell id="d_aS0RjPcK2bfP1dVCjd-6" style="edgeStyle=orthogonalEdgeStyle;rounded=0;orthogonalLoop=1;jettySize=auto;html=1;entryX=0;entryY=0.5;entryDx=0;entryDy=0;" parent="1" source="d_aS0RjPcK2bfP1dVCjd-2" target="d_aS0RjPcK2bfP1dVCjd-4" edge="1">
          <mxGeometry relative="1" as="geometry" />
        </mxCell>
        <mxCell id="d_aS0RjPcK2bfP1dVCjd-2" value="&lt;div&gt;MaterialApp&lt;/div&gt;&lt;div&gt;(home)&lt;br&gt;&lt;/div&gt;" style="rounded=1;whiteSpace=wrap;html=1;" parent="1" vertex="1">
          <mxGeometry x="-473" y="50" width="120" height="60" as="geometry" />
        </mxCell>
        <mxCell id="d_aS0RjPcK2bfP1dVCjd-8" style="edgeStyle=orthogonalEdgeStyle;rounded=0;orthogonalLoop=1;jettySize=auto;html=1;exitX=0.5;exitY=1;exitDx=0;exitDy=0;" parent="1" source="d_aS0RjPcK2bfP1dVCjd-4" target="d_aS0RjPcK2bfP1dVCjd-7" edge="1">
          <mxGeometry relative="1" as="geometry" />
        </mxCell>
        <mxCell id="d_aS0RjPcK2bfP1dVCjd-4" value="&lt;div&gt;Scaffold&lt;/div&gt;&lt;div&gt;(body)&lt;br&gt;&lt;/div&gt;" style="rounded=1;whiteSpace=wrap;html=1;" parent="1" vertex="1">
          <mxGeometry x="-260" y="50" width="120" height="60" as="geometry" />
        </mxCell>
        <mxCell id="d_aS0RjPcK2bfP1dVCjd-10" style="edgeStyle=orthogonalEdgeStyle;rounded=0;orthogonalLoop=1;jettySize=auto;html=1;exitX=0.5;exitY=1;exitDx=0;exitDy=0;" parent="1" source="d_aS0RjPcK2bfP1dVCjd-7" target="d_aS0RjPcK2bfP1dVCjd-9" edge="1">
          <mxGeometry relative="1" as="geometry" />
        </mxCell>
        <mxCell id="d_aS0RjPcK2bfP1dVCjd-7" value="&lt;div&gt;SafeArea&lt;/div&gt;(child)" style="rounded=1;whiteSpace=wrap;html=1;" parent="1" vertex="1">
          <mxGeometry x="-260" y="180" width="120" height="60" as="geometry" />
        </mxCell>
        <mxCell id="d_aS0RjPcK2bfP1dVCjd-12" style="edgeStyle=orthogonalEdgeStyle;rounded=0;orthogonalLoop=1;jettySize=auto;html=1;exitX=0.5;exitY=1;exitDx=0;exitDy=0;" parent="1" source="d_aS0RjPcK2bfP1dVCjd-9" target="d_aS0RjPcK2bfP1dVCjd-11" edge="1">
          <mxGeometry relative="1" as="geometry" />
        </mxCell>
        <mxCell id="N0CcnAuxhg27uGJ685R3-19" style="edgeStyle=orthogonalEdgeStyle;rounded=0;orthogonalLoop=1;jettySize=auto;html=1;exitX=0.5;exitY=1;exitDx=0;exitDy=0;" edge="1" parent="1" source="d_aS0RjPcK2bfP1dVCjd-9" target="d_aS0RjPcK2bfP1dVCjd-17">
          <mxGeometry relative="1" as="geometry" />
        </mxCell>
        <mxCell id="N0CcnAuxhg27uGJ685R3-20" style="edgeStyle=orthogonalEdgeStyle;rounded=0;orthogonalLoop=1;jettySize=auto;html=1;exitX=0.5;exitY=1;exitDx=0;exitDy=0;" edge="1" parent="1" source="d_aS0RjPcK2bfP1dVCjd-9" target="d_aS0RjPcK2bfP1dVCjd-15">
          <mxGeometry relative="1" as="geometry" />
        </mxCell>
        <mxCell id="N0CcnAuxhg27uGJ685R3-21" style="edgeStyle=orthogonalEdgeStyle;rounded=0;orthogonalLoop=1;jettySize=auto;html=1;exitX=0.5;exitY=1;exitDx=0;exitDy=0;" edge="1" parent="1" source="d_aS0RjPcK2bfP1dVCjd-9" target="N0CcnAuxhg27uGJ685R3-1">
          <mxGeometry relative="1" as="geometry" />
        </mxCell>
        <mxCell id="N0CcnAuxhg27uGJ685R3-22" style="edgeStyle=orthogonalEdgeStyle;rounded=0;orthogonalLoop=1;jettySize=auto;html=1;entryX=0.5;entryY=0;entryDx=0;entryDy=0;exitX=0.5;exitY=1;exitDx=0;exitDy=0;" edge="1" parent="1" source="d_aS0RjPcK2bfP1dVCjd-9" target="N0CcnAuxhg27uGJ685R3-6">
          <mxGeometry relative="1" as="geometry" />
        </mxCell>
        <mxCell id="d_aS0RjPcK2bfP1dVCjd-9" value="&lt;div&gt;Column&lt;/div&gt;[children]" style="rounded=1;whiteSpace=wrap;html=1;" parent="1" vertex="1">
          <mxGeometry x="-260" y="320" width="120" height="60" as="geometry" />
        </mxCell>
        <mxCell id="d_aS0RjPcK2bfP1dVCjd-11" value="&lt;div&gt;CircleAvatar&lt;/div&gt;&lt;div&gt;(backgroundImage)&lt;br&gt;&lt;/div&gt;" style="rounded=1;whiteSpace=wrap;html=1;" parent="1" vertex="1">
          <mxGeometry x="-180" y="580" width="120" height="60" as="geometry" />
        </mxCell>
        <mxCell id="d_aS0RjPcK2bfP1dVCjd-15" value="&lt;div&gt;Text&lt;/div&gt;(Cal Stephens)" style="rounded=1;whiteSpace=wrap;html=1;" parent="1" vertex="1">
          <mxGeometry x="-340" y="580" width="120" height="60" as="geometry" />
        </mxCell>
        <mxCell id="d_aS0RjPcK2bfP1dVCjd-17" value="&lt;div&gt;Text&lt;/div&gt;&lt;div&gt;(Flutter &amp;amp; Dart)&lt;/div&gt;" style="rounded=1;whiteSpace=wrap;html=1;" parent="1" vertex="1">
          <mxGeometry x="-500" y="580" width="120" height="60" as="geometry" />
        </mxCell>
        <mxCell id="N0CcnAuxhg27uGJ685R3-4" style="edgeStyle=orthogonalEdgeStyle;rounded=0;orthogonalLoop=1;jettySize=auto;html=1;" edge="1" parent="1" source="N0CcnAuxhg27uGJ685R3-1" target="N0CcnAuxhg27uGJ685R3-3">
          <mxGeometry relative="1" as="geometry" />
        </mxCell>
        <mxCell id="N0CcnAuxhg27uGJ685R3-1" value="&lt;div&gt;Card&lt;/div&gt;&lt;div&gt;(phone)&lt;/div&gt;" style="rounded=1;whiteSpace=wrap;html=1;" vertex="1" parent="1">
          <mxGeometry x="40" y="580" width="120" height="60" as="geometry" />
        </mxCell>
        <mxCell id="N0CcnAuxhg27uGJ685R3-23" style="edgeStyle=orthogonalEdgeStyle;rounded=0;orthogonalLoop=1;jettySize=auto;html=1;entryX=0.5;entryY=0;entryDx=0;entryDy=0;" edge="1" parent="1" source="N0CcnAuxhg27uGJ685R3-3" target="N0CcnAuxhg27uGJ685R3-8">
          <mxGeometry relative="1" as="geometry" />
        </mxCell>
        <mxCell id="N0CcnAuxhg27uGJ685R3-24" style="edgeStyle=orthogonalEdgeStyle;rounded=0;orthogonalLoop=1;jettySize=auto;html=1;" edge="1" parent="1" source="N0CcnAuxhg27uGJ685R3-3" target="N0CcnAuxhg27uGJ685R3-9">
          <mxGeometry relative="1" as="geometry" />
        </mxCell>
        <mxCell id="N0CcnAuxhg27uGJ685R3-3" value="ListTile" style="rounded=1;whiteSpace=wrap;html=1;" vertex="1" parent="1">
          <mxGeometry x="40" y="680" width="120" height="60" as="geometry" />
        </mxCell>
        <mxCell id="N0CcnAuxhg27uGJ685R3-5" style="edgeStyle=orthogonalEdgeStyle;rounded=0;orthogonalLoop=1;jettySize=auto;html=1;" edge="1" source="N0CcnAuxhg27uGJ685R3-6" target="N0CcnAuxhg27uGJ685R3-7" parent="1">
          <mxGeometry relative="1" as="geometry" />
        </mxCell>
        <mxCell id="N0CcnAuxhg27uGJ685R3-6" value="&lt;div&gt;Card&lt;/div&gt;&lt;div&gt;(email)&lt;/div&gt;" style="rounded=1;whiteSpace=wrap;html=1;" vertex="1" parent="1">
          <mxGeometry x="404" y="580" width="120" height="60" as="geometry" />
        </mxCell>
        <mxCell id="N0CcnAuxhg27uGJ685R3-25" style="edgeStyle=orthogonalEdgeStyle;rounded=0;orthogonalLoop=1;jettySize=auto;html=1;entryX=0.5;entryY=0;entryDx=0;entryDy=0;" edge="1" parent="1" source="N0CcnAuxhg27uGJ685R3-7" target="N0CcnAuxhg27uGJ685R3-10">
          <mxGeometry relative="1" as="geometry">
            <Array as="points">
              <mxPoint x="464" y="760" />
              <mxPoint x="380" y="760" />
            </Array>
          </mxGeometry>
        </mxCell>
        <mxCell id="N0CcnAuxhg27uGJ685R3-26" style="edgeStyle=orthogonalEdgeStyle;rounded=0;orthogonalLoop=1;jettySize=auto;html=1;" edge="1" parent="1" source="N0CcnAuxhg27uGJ685R3-7" target="N0CcnAuxhg27uGJ685R3-11">
          <mxGeometry relative="1" as="geometry">
            <Array as="points">
              <mxPoint x="464" y="760" />
              <mxPoint x="570" y="760" />
            </Array>
          </mxGeometry>
        </mxCell>
        <mxCell id="N0CcnAuxhg27uGJ685R3-7" value="ListTile" style="rounded=1;whiteSpace=wrap;html=1;" vertex="1" parent="1">
          <mxGeometry x="404" y="680" width="120" height="60" as="geometry" />
        </mxCell>
        <mxCell id="N0CcnAuxhg27uGJ685R3-8" value="icon" style="rounded=1;whiteSpace=wrap;html=1;" vertex="1" parent="1">
          <mxGeometry x="-40" y="770" width="120" height="60" as="geometry" />
        </mxCell>
        <mxCell id="N0CcnAuxhg27uGJ685R3-9" value="title" style="rounded=1;whiteSpace=wrap;html=1;" vertex="1" parent="1">
          <mxGeometry x="120" y="770" width="120" height="60" as="geometry" />
        </mxCell>
        <mxCell id="N0CcnAuxhg27uGJ685R3-10" value="icon" style="rounded=1;whiteSpace=wrap;html=1;" vertex="1" parent="1">
          <mxGeometry x="320" y="770" width="120" height="60" as="geometry" />
        </mxCell>
        <mxCell id="N0CcnAuxhg27uGJ685R3-11" value="title" style="rounded=1;whiteSpace=wrap;html=1;" vertex="1" parent="1">
          <mxGeometry x="510" y="770" width="120" height="60" as="geometry" />
        </mxCell>
      </root>
    </mxGraphModel>
  </diagram>
</mxfile>
